<svg width="36" height="44" viewBox="0 0 36 44" fill="none" xmlns="http://www.w3.org/2000/svg">
<path d="M21.1133 16.7788C21.2923 16.7788 21.5975 16.8073 22.0288 16.8643C22.4601 16.9212 22.9321 17.084 23.4448 17.3525C23.9657 17.613 24.4377 18.0483 24.8608 18.6587C24.8364 18.6831 24.7184 18.7726 24.5068 18.9272C24.2952 19.0737 24.0592 19.2935 23.7988 19.5864C23.5384 19.8713 23.3105 20.2375 23.1152 20.6851C22.9199 21.1245 22.8223 21.6494 22.8223 22.2598C22.8223 22.9596 22.9443 23.5537 23.1885 24.042C23.4408 24.5303 23.7297 24.925 24.0552 25.2261C24.3888 25.519 24.6818 25.7347 24.9341 25.873C25.1945 26.0114 25.3328 26.0846 25.3491 26.0928C25.341 26.1253 25.2352 26.4142 25.0317 26.9595C24.8364 27.5047 24.5109 28.111 24.0552 28.7783C23.6564 29.3561 23.2251 29.8892 22.7612 30.3774C22.3055 30.8657 21.7562 31.1099 21.1133 31.1099C20.682 31.1099 20.328 31.0488 20.0513 30.9268C19.7746 30.7965 19.4897 30.6704 19.1968 30.5483C18.9038 30.4181 18.5091 30.353 18.0127 30.353C17.5326 30.353 17.1297 30.4181 16.8042 30.5483C16.4868 30.6785 16.1816 30.8088 15.8887 30.939C15.6038 31.0692 15.2661 31.1343 14.8755 31.1343C14.2814 31.1343 13.7606 30.8983 13.313 30.4263C12.8654 29.9543 12.4056 29.3887 11.9336 28.7295C11.3883 27.9482 10.9204 26.9961 10.5298 25.873C10.1473 24.7419 9.95605 23.6025 9.95605 22.4551C9.95605 21.2262 10.188 20.1968 10.6519 19.3667C11.1157 18.5285 11.7098 17.8978 12.4341 17.4746C13.1665 17.0433 13.9233 16.8276 14.7046 16.8276C15.1196 16.8276 15.5103 16.8968 15.8765 17.0352C16.2427 17.1654 16.5845 17.2996 16.9019 17.438C17.2274 17.5763 17.5203 17.6455 17.7808 17.6455C18.033 17.6455 18.326 17.5723 18.6597 17.4258C18.9933 17.2793 19.3677 17.1369 19.7827 16.9985C20.1978 16.8521 20.6413 16.7788 21.1133 16.7788ZM20.4419 15.2285C20.1245 15.611 19.7257 15.9325 19.2456 16.1929C18.7655 16.4451 18.3097 16.5713 17.8784 16.5713C17.7889 16.5713 17.7035 16.5632 17.6221 16.5469C17.6139 16.5225 17.6058 16.4777 17.5977 16.4126C17.5895 16.3475 17.5854 16.2783 17.5854 16.2051C17.5854 15.7168 17.6912 15.2448 17.9028 14.7891C18.1144 14.3252 18.3545 13.9427 18.623 13.6416C18.9648 13.2347 19.3962 12.897 19.917 12.6284C20.4378 12.3599 20.9342 12.2174 21.4062 12.2012C21.4307 12.307 21.4429 12.4331 21.4429 12.5796C21.4429 13.0679 21.3493 13.5439 21.1621 14.0078C20.9749 14.4635 20.7349 14.8704 20.4419 15.2285Z" fill="white"/>
</svg>
