<svg width="24" height="24" viewBox="0 0 24 24" fill="none" xmlns="http://www.w3.org/2000/svg">
<path d="M10.0001 20C10.0001 19.4477 10.4478 19 11.0001 19H20.0001C20.5523 19 21.0001 19.4477 21.0001 20C21.0001 20.5523 20.5523 21 20.0001 21H11.0001C10.4478 21 10.0001 20.5523 10.0001 20Z" fill="#A1A1A2"/>
<path fill-rule="evenodd" clip-rule="evenodd" d="M18.0601 3.585L19.4101 4.935C20.2001 5.715 20.2001 6.985 19.4101 7.765L6.18006 20.995H2.00006V16.815L12.4001 6.405L15.2301 3.585C16.0101 2.805 17.2801 2.805 18.0601 3.585ZM4.00006 18.995L5.41006 19.055L15.2301 9.225L13.8201 7.815L4.00006 17.635V18.995Z" fill="#A1A1A2"/>
<path d="M10.0001 20C10.0001 19.4477 10.4478 19 11.0001 19H20.0001C20.5523 19 21.0001 19.4477 21.0001 20C21.0001 20.5523 20.5523 21 20.0001 21H11.0001C10.4478 21 10.0001 20.5523 10.0001 20Z" stroke="#A1A1A2"/>
<path fill-rule="evenodd" clip-rule="evenodd" d="M18.0601 3.585L19.4101 4.935C20.2001 5.715 20.2001 6.985 19.4101 7.765L6.18006 20.995H2.00006V16.815L12.4001 6.405L15.2301 3.585C16.0101 2.805 17.2801 2.805 18.0601 3.585ZM4.00006 18.995L5.41006 19.055L15.2301 9.225L13.8201 7.815L4.00006 17.635V18.995Z" stroke="#A1A1A2"/>
</svg>
