<svg width="24" height="24" viewBox="0 0 24 24" fill="none" xmlns="http://www.w3.org/2000/svg">
<path fill-rule="evenodd" clip-rule="evenodd" d="M2.75 12C2.75 6.89137 6.89137 2.75 12 2.75C17.1086 2.75 21.25 6.89137 21.25 12C21.25 17.1086 17.1086 21.25 12 21.25C6.89137 21.25 2.75 17.1086 2.75 12ZM12 1.25C6.06294 1.25 1.25 6.06294 1.25 12C1.25 17.9371 6.06294 22.75 12 22.75C17.9371 22.75 22.75 17.9371 22.75 12C22.75 6.06294 17.9371 1.25 12 1.25ZM11.0001 7.75V12.7357C10.9996 12.7654 11.0008 12.7951 11.0038 12.8245C11.0145 12.933 11.0483 13.0348 11.1003 13.1247C11.1521 13.2147 11.2232 13.2949 11.3117 13.3586C11.3357 13.3759 11.3608 13.3918 11.3868 13.4063L16.1243 16.1491C16.4828 16.3566 16.9417 16.2342 17.1492 15.8758C17.3567 15.5173 17.2344 15.0585 16.8759 14.8509L12.5001 12.3176V7.75C12.5001 7.33579 12.1643 7 11.7501 7C11.3359 7 11.0001 7.33579 11.0001 7.75Z" fill="#A1A1A2"/>
</svg>
