<svg width="26" height="26" viewBox="0 0 26 26" fill="none" xmlns="http://www.w3.org/2000/svg">
<rect x="1" y="1" width="24" height="24" rx="4" stroke="#DCDFE1" stroke-width="1.5"/>
<path fill-rule="evenodd" clip-rule="evenodd" d="M9.00006 9.25C9.00006 8.55964 9.5597 8 10.2501 8C10.9404 8 11.5001 8.55964 11.5001 9.25C11.5001 9.94036 10.9404 10.5 10.2501 10.5C9.5597 10.5 9.00006 9.94036 9.00006 9.25ZM10.2501 6.5C8.99128 6.5 7.93004 7.34575 7.60357 8.5H4.75C4.33579 8.5 4 8.83579 4 9.25C4 9.66421 4.33579 10 4.75 10H7.60357C7.93004 11.1543 8.99128 12 10.2501 12C11.5088 12 12.5701 11.1543 12.8965 10H21.2501C21.6643 10 22.0001 9.66421 22.0001 9.25C22.0001 8.83579 21.6643 8.5 21.2501 8.5H12.8965C12.5701 7.34575 11.5088 6.5 10.2501 6.5ZM14.5 16.75C14.5 16.0596 15.0596 15.5 15.75 15.5C16.4404 15.5 17 16.0596 17 16.75C17 17.4404 16.4404 18 15.75 18C15.0596 18 14.5 17.4404 14.5 16.75ZM15.75 14C14.4912 14 13.43 14.8457 13.1035 16H4.75C4.33579 16 4 16.3358 4 16.75C4 17.1642 4.33579 17.5 4.75 17.5H13.1035C13.43 18.6543 14.4912 19.5 15.75 19.5C17.0088 19.5 18.07 18.6543 18.3965 17.5H21.25C21.6642 17.5 22 17.1642 22 16.75C22 16.3358 21.6642 16 21.25 16H18.3965C18.07 14.8457 17.0088 14 15.75 14Z" fill="#615D5B"/>
</svg>
