<svg width="24" height="24" viewBox="0 0 24 24" fill="none" xmlns="http://www.w3.org/2000/svg">
<path fill-rule="evenodd" clip-rule="evenodd" d="M11.2936 12.346C11.6867 12.6736 12.2577 12.6736 12.6508 12.346L18.6746 7.32619C18.9928 7.06101 19.0358 6.58809 18.7706 6.26988C18.5054 5.95167 18.0325 5.90868 17.7143 6.17385L11.9722 10.9589L6.23016 6.17385C5.91195 5.90868 5.43903 5.95167 5.17385 6.26988C4.90868 6.58809 4.95167 7.06101 5.26988 7.32618L11.2936 12.346ZM11.2936 18.5682C11.6867 18.8958 12.2577 18.8958 12.6508 18.5682L18.6746 13.5484C18.9928 13.2832 19.0358 12.8103 18.7706 12.4921C18.5054 12.1739 18.0325 12.1309 17.7143 12.3961L11.9722 17.1811L6.23016 12.3961C5.91195 12.1309 5.43903 12.1739 5.17385 12.4921C4.90868 12.8103 4.95167 13.2832 5.26988 13.5484L11.2936 18.5682Z" fill="#FF7F5F"/>
</svg>
