<svg width="36" height="36" viewBox="0 0 36 36" fill="none" xmlns="http://www.w3.org/2000/svg">
<path d="M23.9305 24.8221C26.0569 22.8374 27.002 19.5296 26.435 16.3635H17.9764V19.8604H22.7964C22.6074 20.9945 21.9458 21.9395 21.0007 22.5539L23.9305 24.8221Z" fill="#4285F4"/>
<path d="M9.94324 22.034C10.0207 22.1864 10.1023 22.3365 10.1882 22.4844C10.2741 22.6323 10.3641 22.7775 10.4581 22.9203C10.5523 23.063 10.6503 23.203 10.7523 23.3402C10.8543 23.4775 10.9601 23.6116 11.0697 23.7429C11.1793 23.8741 11.2925 24.0022 11.4094 24.127C11.5262 24.2518 11.6465 24.3732 11.7702 24.4913C11.8939 24.6093 12.0208 24.7237 12.151 24.8346C12.2811 24.9454 12.4143 25.0525 12.5506 25.1559C12.6868 25.2592 12.8258 25.3586 12.9676 25.454C13.1095 25.5495 13.2539 25.6408 13.401 25.7281C13.5479 25.8154 13.6973 25.8985 13.849 25.9774C14.0007 26.0562 14.1545 26.1308 14.3104 26.2009C14.4664 26.271 14.6241 26.3368 14.7838 26.398C14.9434 26.4592 15.1046 26.5159 15.2675 26.568C15.4303 26.6201 15.5945 26.6677 15.76 26.7105C15.9255 26.7533 16.0921 26.7914 16.2598 26.8249C16.4275 26.8583 16.5959 26.8869 16.7653 26.9109C16.9345 26.9347 17.1044 26.9539 17.2748 26.9681C17.4451 26.9824 17.6158 26.9919 17.7867 26.9965C17.9576 27.0012 18.1285 27.001 18.2994 26.996C18.4703 26.991 18.6409 26.9811 18.8113 26.9665C18.9816 26.9518 19.1514 26.9324 19.3207 26.9081C19.4899 26.8839 19.6583 26.8548 19.826 26.821C19.9936 26.7872 20.1601 26.7488 20.3255 26.7056C20.4909 26.6624 20.655 26.6145 20.8177 26.5621C20.9804 26.5096 21.1415 26.4526 21.3011 26.391C21.4605 26.3294 21.6182 26.2634 21.774 26.1929C21.9298 26.1224 22.0834 26.0476 22.2349 25.9684C22.3865 25.8892 22.5356 25.8058 22.6825 25.7182C22.8293 25.6306 22.9735 25.5389 23.1151 25.4432C23.2568 25.3474 23.3956 25.2477 23.5316 25.1441C23.6676 25.0405 23.8006 24.9331 23.9305 24.822L21.0007 22.5538C18.4963 24.2076 14.3379 23.5934 12.9202 19.7185L9.94324 22.034Z" fill="#34A853"/>
<path d="M12.9202 19.7186C12.5422 18.5373 12.5422 17.4504 12.9202 16.2691L9.94323 13.9536C8.85639 16.1274 8.52562 19.1988 9.94323 22.0341L12.9202 19.7186Z" fill="#FBBC02"/>
<path d="M12.9202 16.269C13.9599 13.0085 18.4018 11.1184 21.3788 13.9063L23.9778 11.3546C20.2919 7.81057 13.1093 7.9523 9.94324 13.9536L12.9202 16.269Z" fill="#EA4335"/>
</svg>
