<svg width="21" height="20" viewBox="0 0 21 20" fill="none" xmlns="http://www.w3.org/2000/svg">
<path d="M14.1 3C12.708 3 11.372 3.648 10.5 4.672C9.628 3.648 8.292 3 6.9 3C4.436 3 2.5 4.936 2.5 7.4C2.5 10.424 5.22 12.888 9.34 16.632L10.5 17.68L11.66 16.624C15.78 12.888 18.5 10.424 18.5 7.4C18.5 4.936 16.564 3 14.1 3ZM10.58 15.44L10.5 15.52L10.42 15.44C6.612 11.992 4.1 9.712 4.1 7.4C4.1 5.8 5.3 4.6 6.9 4.6C8.132 4.6 9.332 5.392 9.756 6.488H11.252C11.668 5.392 12.868 4.6 14.1 4.6C15.7 4.6 16.9 5.8 16.9 7.4C16.9 9.712 14.388 11.992 10.58 15.44Z" fill="#615D5B"/>
</svg>
