<svg width="24" height="24" viewBox="0 0 24 24" fill="none" xmlns="http://www.w3.org/2000/svg">
<path fill-rule="evenodd" clip-rule="evenodd" d="M12.3334 11C14.5425 11 16.3334 9.20914 16.3334 7C16.3334 4.79086 14.5425 3 12.3334 3C10.1242 3 8.33337 4.79086 8.33337 7C8.33337 9.20914 10.1242 11 12.3334 11ZM21.3334 20.65C21.3334 21.4422 20.6263 22 19.8341 22H4.83269C4.04048 22 3.33337 21.4422 3.33337 20.65C3.33337 16.425 7.36281 13 12.3334 13C17.3039 13 21.3334 16.425 21.3334 20.65Z" fill="#FF7F5F"/>
<path d="M15.5834 7C15.5834 8.79493 14.1283 10.25 12.3334 10.25V11.75C14.9567 11.75 17.0834 9.62335 17.0834 7H15.5834ZM12.3334 3.75C14.1283 3.75 15.5834 5.20507 15.5834 7H17.0834C17.0834 4.37665 14.9567 2.25 12.3334 2.25V3.75ZM9.08337 7C9.08337 5.20507 10.5384 3.75 12.3334 3.75V2.25C9.71002 2.25 7.58337 4.37665 7.58337 7H9.08337ZM12.3334 10.25C10.5384 10.25 9.08337 8.79493 9.08337 7H7.58337C7.58337 9.62335 9.71002 11.75 12.3334 11.75V10.25ZM19.8341 22.75C20.9344 22.75 22.0834 21.9551 22.0834 20.65H20.5834C20.5834 20.9293 20.3182 21.25 19.8341 21.25V22.75ZM4.83269 22.75H19.8341V21.25H4.83269V22.75ZM2.58337 20.65C2.58337 21.9551 3.73236 22.75 4.83269 22.75V21.25C4.34859 21.25 4.08337 20.9293 4.08337 20.65H2.58337ZM12.3334 12.25C7.06751 12.25 2.58337 15.9011 2.58337 20.65H4.08337C4.08337 16.9489 7.65811 13.75 12.3334 13.75V12.25ZM22.0834 20.65C22.0834 15.9011 17.5992 12.25 12.3334 12.25V13.75C17.0086 13.75 20.5834 16.9489 20.5834 20.65H22.0834Z" fill="#FF7F5F"/>
</svg>
