<svg width="24" height="24" viewBox="0 0 24 24" fill="none" xmlns="http://www.w3.org/2000/svg">
<path fill-rule="evenodd" clip-rule="evenodd" d="M15.5653 4.8962C16.0601 4.65094 16.2624 4.05097 16.0172 3.55613C15.7719 3.0613 15.1719 2.85898 14.6771 3.10424L10.8113 5.02031C10.5529 5.14837 10.3624 5.38172 10.2886 5.66049C10.2149 5.93926 10.265 6.2363 10.4262 6.47539L12.8385 10.0526C13.1473 10.5106 13.7688 10.6314 14.2267 10.3227C14.6846 10.0139 14.8055 9.39236 14.4967 8.93446L13.3832 7.28309C13.4566 7.29412 13.5311 7.30718 13.6066 7.32227C14.1659 7.43402 14.6748 7.63638 14.9834 7.80622C16.1415 8.44354 17.0593 9.43778 17.5993 10.6384C18.1393 11.8389 18.2727 13.1813 17.9796 14.4635C17.6865 15.7458 16.9825 16.8993 15.9728 17.7498C14.9631 18.6004 13.7024 19.1017 12.3805 19.1775C11.0587 19.2532 9.74832 18.8992 8.64691 18.1693C7.54594 17.4398 6.71369 16.3745 6.27455 15.1345C5.95134 14.2124 5.66299 11.9107 6.94791 10.169C7.27577 9.72451 7.18127 9.09844 6.73683 8.77058C6.29239 8.44271 5.66632 8.53722 5.33846 8.98165C3.50176 11.4714 3.95151 14.5551 4.38786 15.7981L4.38871 15.8005C4.97296 17.4514 6.08002 18.8677 7.54216 19.8365C9.00423 20.8054 10.7424 21.2746 12.4949 21.1742C14.2475 21.0738 15.9203 20.4091 17.2613 19.2794C18.6024 18.1497 19.5391 16.6161 19.9293 14.9092C20.3195 13.2022 20.1418 11.4153 19.4233 9.8179C18.7048 8.22058 17.4847 6.89988 15.9477 6.05404C15.5515 5.83599 15.0168 5.61649 14.4268 5.46049L15.5653 4.8962Z" fill="#C4C9CC"/>
</svg>
