<svg width="16" height="16" viewBox="0 0 16 16" fill="none" xmlns="http://www.w3.org/2000/svg">
<path d="M8.04668 2.30973C8.22588 1.92387 8.77445 1.92387 8.95365 2.30973L10.2717 5.14798C10.3446 5.30486 10.4934 5.41294 10.6651 5.43375L13.7717 5.81027C14.1941 5.86145 14.3636 6.38318 14.052 6.67284L11.76 8.8035C11.6333 8.92126 11.5765 9.09614 11.6097 9.26588L12.2116 12.3368C12.2935 12.7543 11.8497 13.0768 11.4779 12.8699L8.74325 11.3485C8.5921 11.2644 8.40822 11.2644 8.25707 11.3485L5.52243 12.8699C5.15065 13.0768 4.70685 12.7543 4.78868 12.3368L5.3906 9.26588C5.42387 9.09614 5.36704 8.92126 5.24036 8.8035L2.94834 6.67284C2.63674 6.38318 2.80625 5.86145 3.22861 5.81027L6.33526 5.43375C6.50697 5.41294 6.65573 5.30486 6.72858 5.14798L8.04668 2.30973Z" fill="#FF7F5F"/>
</svg>
