<svg width="19" height="18" viewBox="0 0 19 18" fill="none" xmlns="http://www.w3.org/2000/svg">
<path fill-rule="evenodd" clip-rule="evenodd" d="M8.00006 17C8.00006 16.4477 8.44778 16 9.00006 16H18.0001C18.5523 16 19.0001 16.4477 19.0001 17C19.0001 17.5523 18.5523 18 18.0001 18H9.00006C8.44778 18 8.00006 17.5523 8.00006 17Z" fill="#FF7F5F"/>
<path fill-rule="evenodd" clip-rule="evenodd" d="M16.0601 0.585L17.4101 1.935C18.2001 2.715 18.2001 3.985 17.4101 4.765L4.18006 17.995H6.10352e-05V13.815L10.4001 3.405L13.2301 0.585C14.0101 -0.195 15.2801 -0.195 16.0601 0.585Z" fill="#FF7F5F"/>
<path d="M9.69586 4.10995L10.4001 3.405L11.111 2.69666L15.2947 6.8804L13.8805 8.29461L9.69586 4.10995Z" fill="white"/>
</svg>
