<svg width="22" height="22" viewBox="0 0 22 22" fill="none" xmlns="http://www.w3.org/2000/svg">
<g id="edit 2">
<path id="Icon" d="M10.0835 3.66671H3.66683C3.1806 3.66671 2.71428 3.85987 2.37047 4.20368C2.02665 4.5475 1.8335 5.01381 1.8335 5.50005V18.3334C1.8335 18.8196 2.02665 19.2859 2.37047 19.6297C2.71428 19.9736 3.1806 20.1667 3.66683 20.1667H16.5002C16.9864 20.1667 17.4527 19.9736 17.7965 19.6297C18.1403 19.2859 18.3335 18.8196 18.3335 18.3334V11.9167M16.9585 2.29171C17.3232 1.92704 17.8178 1.72217 18.3335 1.72217C18.8492 1.72217 19.3438 1.92704 19.7085 2.29171C20.0732 2.65638 20.278 3.15099 20.278 3.66671C20.278 4.18244 20.0732 4.67704 19.7085 5.04171L11.0002 13.75L7.3335 14.6667L8.25016 11L16.9585 2.29171Z" stroke="#222222" stroke-width="1.5" stroke-linecap="round" stroke-linejoin="round"/>
</g>
</svg>
