<svg width="24" height="24" viewBox="0 0 24 24" fill="none" xmlns="http://www.w3.org/2000/svg">
<path fill-rule="evenodd" clip-rule="evenodd" d="M8.85 5.50015C8.6567 5.50015 8.5 5.65685 8.5 5.85015V6.47515C8.5 7.04124 8.04109 7.50015 7.475 7.50015H3.85C3.6567 7.50015 3.5 7.65685 3.5 7.85015V17.6502C3.5 17.8435 3.6567 18.0002 3.85 18.0002H19.65C19.8433 18.0002 20 17.8435 20 17.6502V7.85015C20 7.65685 19.8433 7.50015 19.65 7.50015H16.025C15.4589 7.50015 15 7.04124 15 6.47515V5.85015C15 5.65685 14.8433 5.50015 14.65 5.50015H8.85ZM7 5.85015C7 4.82843 7.82827 4.00015 8.85 4.00015H14.65C15.6717 4.00015 16.5 4.82843 16.5 5.85015V6.00015H19.65C20.6717 6.00015 21.5 6.82843 21.5 7.85015V17.6502C21.5 18.6719 20.6717 19.5002 19.65 19.5002H3.85C2.82827 19.5002 2 18.6719 2 17.6502V7.85015C2 6.82843 2.82827 6.00015 3.85 6.00015H7V5.85015ZM11.75 10.5001C10.5073 10.5001 9.49998 11.5075 9.49998 12.7501C9.49998 13.9927 10.5073 15.0001 11.75 15.0001C12.9926 15.0001 14 13.9927 14 12.7501C14 11.5075 12.9926 10.5001 11.75 10.5001ZM7.99998 12.7501C7.99998 10.679 9.67891 9.0001 11.75 9.0001C13.821 9.0001 15.5 10.679 15.5 12.7501C15.5 14.8212 13.821 16.5001 11.75 16.5001C9.67891 16.5001 7.99998 14.8212 7.99998 12.7501ZM17.75 10.7501C18.3023 10.7501 18.75 10.3024 18.75 9.75007C18.75 9.19779 18.3023 8.75007 17.75 8.75007C17.1977 8.75007 16.75 9.19779 16.75 9.75007C16.75 10.3024 17.1977 10.7501 17.75 10.7501Z" fill="#454241"/>
</svg>
