<svg width="24" height="24" viewBox="0 0 24 24" fill="none" xmlns="http://www.w3.org/2000/svg">
<path fill-rule="evenodd" clip-rule="evenodd" d="M4 6.25C3.58579 6.25 3.25 6.58579 3.25 7C3.25 7.41421 3.58579 7.75 4 7.75L5.25 7.75L5.25 18C5.25 19.5188 6.48122 20.75 8 20.75L16 20.75C17.5188 20.75 18.75 19.5188 18.75 18L18.75 7.75L20 7.75C20.4142 7.75 20.75 7.41421 20.75 7C20.75 6.58579 20.4142 6.25 20 6.25L18.75 6.25L18 6.25L16.75 6.25L16.75 6C16.75 4.48122 15.5188 3.25 14 3.25L10 3.25C8.48122 3.25 7.25 4.48122 7.25 6L7.25 6.25L6 6.25L5.25 6.25L4 6.25ZM16 7.75L16.75 7.75L17.25 7.75L17.25 18C17.25 18.6904 16.6904 19.25 16 19.25L8 19.25C7.30964 19.25 6.75 18.6904 6.75 18L6.75 7.75L7.25 7.75L8 7.75L16 7.75ZM15.25 6L15.25 6.25L8.75 6.25L8.75 6C8.75 5.30964 9.30964 4.75 10 4.75L14 4.75C14.6904 4.75 15.25 5.30964 15.25 6ZM12.75 10C12.75 9.58579 12.4142 9.25 12 9.25C11.5858 9.25 11.25 9.58579 11.25 10L11.25 17C11.25 17.4142 11.5858 17.75 12 17.75C12.4142 17.75 12.75 17.4142 12.75 17L12.75 10ZM15 9.25C15.4142 9.25 15.75 9.58579 15.75 10L15.75 17C15.75 17.4142 15.4142 17.75 15 17.75C14.5858 17.75 14.25 17.4142 14.25 17L14.25 10C14.25 9.58579 14.5858 9.25 15 9.25ZM9.75 10C9.75 9.58579 9.41421 9.25 9 9.25C8.58579 9.25 8.25 9.58579 8.25 10L8.25 17C8.25 17.4142 8.58579 17.75 9 17.75C9.41421 17.75 9.75 17.4142 9.75 17L9.75 10Z" fill="#D32625"/>
</svg>
