<svg width="24" height="24" viewBox="0 0 24 24" fill="none" xmlns="http://www.w3.org/2000/svg">
<path fill-rule="evenodd" clip-rule="evenodd" d="M5 2.25C3.48122 2.25 2.25 3.48122 2.25 5V19C2.25 20.5188 3.48122 21.75 5 21.75H9.49841H9.50187H19C20.5188 21.75 21.75 20.5188 21.75 19V16V5C21.75 3.48122 20.5188 2.25 19 2.25H5ZM19 20.25H11.3912L17.9842 14.0448L20.25 16.3107V19C20.25 19.6904 19.6904 20.25 19 20.25ZM20.25 5V14.1893L18.8733 12.8127C18.3956 12.3349 17.6247 12.3233 17.1327 12.7863L15.4401 14.3794L12.8839 11.8232C12.3957 11.3351 11.6043 11.3351 11.1161 11.8232L3.76242 19.1769C3.75424 19.1191 3.75 19.0601 3.75 19V5C3.75 4.30964 4.30964 3.75 5 3.75H19C19.6904 3.75 20.25 4.30964 20.25 5ZM9.20257 20.25L14.3473 15.4079L12 13.0607L4.82308 20.2376C4.88088 20.2458 4.93994 20.25 5 20.25H9.20257ZM6.75 8C6.75 7.30964 7.30964 6.75 8 6.75C8.69036 6.75 9.25 7.30964 9.25 8C9.25 8.69036 8.69036 9.25 8 9.25C7.30964 9.25 6.75 8.69036 6.75 8ZM8 5.25C6.48122 5.25 5.25 6.48122 5.25 8C5.25 9.51878 6.48122 10.75 8 10.75C9.51878 10.75 10.75 9.51878 10.75 8C10.75 6.48122 9.51878 5.25 8 5.25Z" fill="#454241"/>
</svg>
