<svg width="80" height="27" viewBox="0 0 80 27" fill="none" xmlns="http://www.w3.org/2000/svg">
<g id="LOGO">
<g id="JOIN logo">
<path id="Vector" d="M60.6336 26.2971C59.877 26.2971 59.3156 26.1995 58.9495 26.0043C58.6079 25.7846 58.437 25.4795 58.437 25.089V1.42734C58.437 1.03684 58.6079 0.743968 58.9495 0.54872C59.3156 0.329066 59.877 0.219238 60.6336 0.219238H61.8783C62.3176 0.219238 62.6837 0.255847 62.9765 0.329064C63.2938 0.377877 63.5745 0.487704 63.8186 0.658546C64.087 0.82939 64.3433 1.09786 64.5873 1.46395L73.2637 14.3992C73.5322 14.7653 73.7884 15.1802 74.0325 15.6439C74.2766 16.1076 74.5084 16.5347 74.7281 16.9252L74.8745 16.8886C74.8501 16.4737 74.8135 16.0344 74.7647 15.5707C74.7403 15.0825 74.7281 14.57 74.7281 14.0331V1.42734C74.7281 1.03684 74.8989 0.743968 75.2406 0.54872C75.6067 0.329066 76.168 0.219238 76.9246 0.219238H77.8032C78.5842 0.219238 79.1456 0.329066 79.4873 0.54872C79.8289 0.743968 79.9998 1.03684 79.9998 1.42734V25.089C79.9998 25.4795 79.8289 25.7846 79.4873 26.0043C79.1456 26.1995 78.5842 26.2971 77.8032 26.2971H76.5585C76.1924 26.2971 75.863 26.2727 75.5701 26.2239C75.2772 26.1751 75.0087 26.0897 74.7647 25.9677C74.545 25.8212 74.3376 25.6016 74.1423 25.3087L65.1731 12.2392C64.929 11.8731 64.6728 11.4582 64.4043 10.9945C64.1602 10.5308 63.9284 10.1037 63.7087 9.71321L63.5623 9.74982C63.6111 10.1647 63.6477 10.6162 63.6721 11.1044C63.6965 11.5681 63.7087 12.0684 63.7087 12.6053V25.089C63.7087 25.4795 63.5379 25.7846 63.1962 26.0043C62.8545 26.1995 62.2932 26.2971 61.5122 26.2971H60.6336Z" fill="#FF7F5F"/>
<path id="Subtract" fill-rule="evenodd" clip-rule="evenodd" d="M55.1339 1.88328C55.2384 2.06689 55.2362 2.32894 55.1272 2.66943L49.686 19.6676C49.3493 20.7196 48.2235 21.2994 47.1715 20.9627L45.4606 20.415C44.4086 20.0783 43.8288 18.9525 44.1655 17.9005L49.6067 0.902304C49.7157 0.561812 49.8603 0.345351 50.0407 0.252922C50.2287 0.175491 50.4937 0.191485 50.8355 0.300904L54.476 1.46622C54.8178 1.57564 55.0371 1.71466 55.1339 1.88328ZM43.9056 21.1986C43.5069 21.071 43.0803 21.2907 42.9527 21.6893C42.8473 22.0185 42.8244 22.2864 42.8838 22.4931C43.1568 23.4063 43.6221 24.4249 44.2798 25.5489C44.4072 25.7398 44.5335 25.8553 44.6588 25.8954C44.7956 25.9392 44.9598 25.9167 45.1515 25.8279C45.7909 25.5571 46.3451 25.2778 46.8141 24.99C47.2794 24.7135 47.6956 24.4338 48.0625 24.1508C48.2346 24.0057 48.3715 23.7743 48.4732 23.4565C48.6008 23.0578 48.3811 22.6312 47.9824 22.5036L43.9056 21.1986Z" fill="#FFCE36"/>
<path id="Vector_2" d="M29.2607 26.2121C25.5022 26.2121 22.2928 25.0895 20.2427 22.8441C18.217 20.5743 17.2041 17.3283 17.2041 13.1061C17.2041 8.88382 18.217 5.65001 20.2427 3.40465C22.2928 1.13488 25.5022 0 29.2607 0C33.0437 0 36.2409 1.13488 38.2422 3.40465C40.2679 5.65001 41.2807 8.88382 41.2807 13.1061C41.2807 17.3283 40.2679 20.5743 38.2422 22.8441C36.2409 25.0895 33.0437 26.2121 29.2607 26.2121ZM29.2607 21.4163C31.2132 21.4163 32.9948 20.7208 33.9955 19.3296C34.9961 17.9141 35.4965 15.8396 35.4965 13.1061C35.4965 10.3482 34.9961 8.27366 33.9955 6.88252C32.9948 5.49137 31.2132 4.7958 29.2607 4.7958C27.3082 4.7958 25.5144 5.49137 24.4893 6.88252C23.4887 8.27366 22.9883 10.3482 22.9883 13.1061C22.9883 15.8396 23.4887 17.9141 24.4893 19.3296C25.5144 20.7208 27.3082 21.4163 29.2607 21.4163Z" fill="#FF7F5F"/>
<path id="Vector_3" d="M4.64936 26.2117C3.86836 26.2117 3.12398 26.1385 2.4162 25.9921C1.70843 25.8456 1.12268 25.6504 0.658964 25.4063C0.219655 25.1379 0 24.845 0 24.5277C0 24.3569 0.0244061 24.0884 0.0732183 23.7223C0.146437 23.3562 0.231858 22.9779 0.329482 22.5874C0.451513 22.1725 0.63831 21.5851 0.809153 21.3166C1.0044 21.0237 1.21185 20.8773 1.43151 20.8773C1.62676 20.8773 1.82201 20.9139 2.01725 20.9871C2.23691 21.0359 2.50538 21.097 2.82265 21.1702C3.16434 21.2434 3.55949 21.3297 4.05572 21.3538C5.48662 21.3827 6.91563 21.2081 7.49592 20.7273C7.7022 20.5564 7.80239 20.4149 7.94973 20.1497C8.18073 19.6517 8.26146 19.1785 8.26146 18.3408V1.42734C8.26146 1.03684 8.4323 0.743968 8.77399 0.54872C9.14008 0.329066 9.70142 0.219238 10.458 0.219238H11.7393C12.5203 0.219238 13.0817 0.329066 13.4233 0.54872C13.765 0.743968 13.9359 1.03684 13.9359 1.42734V17.9747C13.9359 19.44 13.8226 21.2188 13.3897 22.2721C12.9569 23.2822 12.6721 23.6767 12.0093 24.3906C10.336 25.9756 7.38284 26.2117 4.64936 26.2117Z" fill="#FF7F5F"/>
</g>
</g>
</svg>
